<svg xmlns="http://www.w3.org/2000/svg" width="327.77470075944365" height="248.2875" viewBox="0 0 165 124.98657585554876" class="looka-1j8o68f"><defs id="SvgjsDefs1249"><linearGradient id="SvgjsLinearGradient1254"><stop id="SvgjsStop1255" stop-color="#006838" offset="0"/><stop id="SvgjsStop1256" stop-color="#96cf24" offset="1"/></linearGradient><linearGradient id="SvgjsLinearGradient1257"><stop id="SvgjsStop1258" stop-color="#006838" offset="0"/><stop id="SvgjsStop1259" stop-color="#96cf24" offset="1"/></linearGradient></defs><g id="SvgjsG1250" featurekey="symbolFeature-0" transform="matrix(2.1186387254805292,0,0,2.1186387254805292,-5.2965917624729775,-5.296579639524948)" fill="url(#SvgjsLinearGradient1254)"><title xmlns="http://www.w3.org/2000/svg">1</title><path xmlns="http://www.w3.org/2000/svg" d="M32,16.5H56.24a1.49861,1.49861,0,0,1,1.3.75,29.56871,29.56871,0,0,1,3.03,7.37,1.57067,1.57067,0,0,1-.26005,1.3,1.5914,1.5914,0,0,1-1.19.58H32A5.50968,5.50968,0,0,0,26.5,32,1.498,1.498,0,0,1,25,33.5H18A1.498,1.498,0,0,1,16.5,32,15.51337,15.51337,0,0,1,32,16.5Z"/><path xmlns="http://www.w3.org/2000/svg" d="M32,47.5H7.76a1.49874,1.49874,0,0,1-1.3-.75,29.57057,29.57057,0,0,1-3.03-7.37,1.47647,1.47647,0,0,1,.12-1.06,1.51388,1.51388,0,0,1,1.33-.82H32A5.50972,5.50972,0,0,0,37.5,32,1.498,1.498,0,0,1,39,30.5h7A1.498,1.498,0,0,1,47.5,32,15.51337,15.51337,0,0,1,32,47.5Z"/><path xmlns="http://www.w3.org/2000/svg" d="M4,33.5A1.498,1.498,0,0,1,2.5,32,29.48784,29.48784,0,0,1,51.49,9.87,1.54256,1.54256,0,0,1,52,11.13a1.51761,1.51761,0,0,1-1.5,1.37H32A19.52509,19.52509,0,0,0,12.5,32,1.498,1.498,0,0,1,11,33.5Z"/><path xmlns="http://www.w3.org/2000/svg" d="M61.5,32c.07664,25.20862-30.16446,38.86111-48.99012,22.12964A1.50835,1.50835,0,0,1,12.31,52.09a1.49265,1.49265,0,0,1,1.19-.59H32A19.52509,19.52509,0,0,0,51.5,32,1.498,1.498,0,0,1,53,30.5h7A1.498,1.498,0,0,1,61.5,32Z"/></g><g id="SvgjsG1251" featurekey="vMvB0T-0" transform="matrix(0.2635046060332527,0,0,0.2635046060332527,144.68906454728995,59.60869562485896)" fill="url(#SvgjsLinearGradient1257)"><path d="M5.1 17.72 l0.54 0 q0.24 0.66 0.24 1.32 t-0.06 0.86 q-1.2 0.2 -2.14 0.2 q-1.36 0 -1.93 -0.67 t-0.57 -2.11 l0 -11.9 l0.12 -0.14 l1.22 0 q0.94 0 1.32 0.42 t0.38 1.46 l0 9.62 q0 0.94 0.88 0.94 z M15.04 16.02 l-5.22 0 q0.04 0.9 0.46 1.4 t1.38 0.5 q0.48 0 1.11 -0.14 t1.45 -0.46 q0.66 0.68 0.82 1.84 q-1.6 1.14 -3.92 1.14 q-1.26 0 -2.11 -0.4 t-1.38 -1.12 t-0.75 -1.7 t-0.22 -2.14 q0 -1.12 0.27 -2.07 t0.82 -1.65 t1.4 -1.1 t1.99 -0.4 q0.96 0 1.73 0.32 t1.31 0.88 t0.83 1.34 t0.29 1.7 q0 1.22 -0.26 2.06 z M9.8 13.86 l2.64 0 l0 -0.22 q0 -0.74 -0.33 -1.22 t-0.99 -0.48 q-0.64 0 -0.95 0.45 t-0.37 1.47 z M25.68 18.56 q-0.1 0.42 -0.38 0.9 t-0.58 0.7 q-1.4 -0.04 -2.16 -1.06 q-1.3 1.2 -2.82 1.2 q-0.78 0 -1.36 -0.25 t-0.98 -0.67 t-0.6 -0.97 t-0.2 -1.15 q0 -0.86 0.31 -1.51 t0.85 -1.08 t1.26 -0.65 t1.54 -0.22 q0.46 0 0.81 0.01 t0.61 0.03 l0 -0.38 q0 -1.26 -1.3 -1.26 q-0.84 0 -2.94 0.64 q-0.6 -0.7 -0.76 -2.18 q0.48 -0.18 1.07 -0.34 t1.21 -0.28 t1.22 -0.19 t1.08 -0.07 q0.7 0 1.35 0.2 t1.14 0.61 t0.78 1.06 t0.29 1.55 l0 4.06 q0 0.92 0.56 1.3 z M19.64 17.06 q0 0.94 1.08 0.94 q0.56 0 1.26 -0.58 l0 -1.6 q-0.4 -0.02 -0.67 -0.03 t-0.41 -0.01 q-1.26 0 -1.26 1.28 z M26.86 11.46 q0.1 -0.4 0.38 -0.89 t0.56 -0.71 q1.84 0.14 2.56 1.82 q0.76 -1.8 2.5 -1.8 q0.52 0 1.32 0.16 q0 0.62 -0.21 1.47 t-0.57 1.45 q-0.34 -0.12 -1.02 -0.2 q-1 0 -1.64 1.02 l0 6.22 q-0.66 0.12 -1.55 0.12 t-1.57 -0.12 l0 -6.46 q0 -1.5 -0.76 -2.08 z M44 13.4 l0 4.1 q0 1.32 0.48 1.98 q-0.76 0.68 -1.82 0.68 q-1.04 0 -1.42 -0.48 t-0.38 -1.46 l0 -4.26 q0 -0.68 -0.18 -1 t-0.7 -0.32 q-0.3 0 -0.68 0.16 t-0.78 0.52 l0 6.68 q-0.34 0.06 -0.74 0.09 t-0.82 0.03 t-0.82 -0.03 t-0.74 -0.09 l0 -9.98 l0.14 -0.14 l1.18 0 q1.22 0 1.64 1.2 q1.4 -1.24 2.78 -1.24 q1.4 0 2.13 0.97 t0.73 2.59 z M54.85999999999999 13.4 l0 4.1 q0 1.34 0.5 1.98 q-0.76 0.68 -1.84 0.68 q-1.04 0 -1.42 -0.48 t-0.38 -1.46 l0 -4.26 q0 -0.68 -0.18 -1 t-0.7 -0.32 q-0.3 0 -0.68 0.16 t-0.78 0.52 l0 6.68 q-0.66 0.12 -1.52 0.12 t-1.52 -0.12 l0 -14.58 l0.14 -0.14 l1.2 0 q0.96 0 1.33 0.42 t0.37 1.46 l0 3.78 q1.34 -1.1 2.68 -1.1 t2.07 0.97 t0.73 2.59 z M57.13999999999999 16.62 l0 -4.1 q0 -1.3 -0.48 -2 q0.74 -0.66 1.8 -0.66 t1.44 0.48 t0.38 1.46 l0 4.24 q0 0.7 0.16 1.02 t0.84 0.32 q0.66 0 1.34 -0.68 l0 -6.68 q0.66 -0.12 1.54 -0.12 t1.58 0.12 l0 7.12 q0 1.08 0.56 1.46 q-0.1 0.4 -0.38 0.87 t-0.58 0.69 q-1.64 -0.06 -2.36 -1.4 q-1.58 1.42 -2.98 1.42 t-2.13 -0.97 t-0.73 -2.59 z M68.17999999999999 19.5 l0 -14.08 l0.14 -0.14 l1.18 0 q0.92 0 1.32 0.42 t0.4 1.46 l0 3.34 q1.04 -0.68 2.32 -0.68 q1.76 0 2.65 1.42 t0.89 3.82 q0 1.14 -0.36 2.08 t-1 1.62 t-1.56 1.05 t-2.02 0.37 q-2.28 0 -3.96 -0.68 z M72.6 12.32 q-0.78 0 -1.38 0.66 l0 4.88 q0.2 0.04 0.43 0.06 t0.49 0.02 q1.74 0 1.74 -3.02 q0 -2.58 -1.28 -2.6 z"/></g></svg>